<svg width="209" height="13" viewBox="0 0 209 13" fill="none" xmlns="http://www.w3.org/2000/svg">
<path d="M12.24 6.4C12.24 7.2 12.0907 7.95733 11.792 8.672C11.4933 9.376 11.0827 9.98933 10.56 10.512C10.048 11.024 9.44 11.4293 8.736 11.728C8.032 12.0267 7.28 12.176 6.48 12.176C5.68 12.176 4.92267 12.0267 4.208 11.728C3.504 11.4293 2.89067 11.024 2.368 10.512C1.856 9.98933 1.45067 9.376 1.152 8.672C0.853333 7.95733 0.704 7.2 0.704 6.4C0.704 5.6 0.853333 4.848 1.152 4.144C1.45067 3.42933 1.856 2.816 2.368 2.304C2.89067 1.78133 3.504 1.37067 4.208 1.072C4.92267 0.773333 5.68 0.624 6.48 0.624C7.28 0.624 8.032 0.773333 8.736 1.072C9.44 1.37067 10.048 1.78133 10.56 2.304C11.0827 2.816 11.4933 3.42933 11.792 4.144C12.0907 4.848 12.24 5.6 12.24 6.4ZM10.992 6.4C10.992 5.74933 10.8747 5.14133 10.64 4.576C10.4053 4 10.0853 3.50933 9.68 3.104C9.28533 2.688 8.81067 2.36267 8.256 2.128C7.70133 1.88267 7.10933 1.76 6.48 1.76C5.84 1.76 5.24267 1.88267 4.688 2.128C4.13333 2.36267 3.65333 2.688 3.248 3.104C2.85333 3.50933 2.53867 4 2.304 4.576C2.06933 5.14133 1.952 5.74933 1.952 6.4C1.952 7.05067 2.06933 7.65867 2.304 8.224C2.53867 8.78933 2.85333 9.28 3.248 9.696C3.65333 10.112 4.13333 10.4427 4.688 10.688C5.24267 10.9227 5.84 11.04 6.48 11.04C7.10933 11.04 7.70133 10.9227 8.256 10.688C8.81067 10.4427 9.28533 10.112 9.68 9.696C10.0853 9.28 10.4053 8.78933 10.64 8.224C10.8747 7.65867 10.992 7.05067 10.992 6.4ZM29.736 6.64C29.736 7.41867 29.5973 8.14933 29.32 8.832C29.0427 9.504 28.6587 10.0853 28.168 10.576C27.6773 11.0667 27.1013 11.456 26.44 11.744C25.7787 12.032 25.064 12.176 24.296 12.176C23.496 12.176 22.7387 12.0267 22.024 11.728C21.32 11.4187 20.7067 11.008 20.184 10.496C19.672 9.97333 19.2613 9.36 18.952 8.656C18.6533 7.952 18.504 7.2 18.504 6.4C18.504 5.6 18.6533 4.848 18.952 4.144C19.2507 3.44 19.656 2.832 20.168 2.32C20.6907 1.79733 21.304 1.38667 22.008 1.088C22.7227 0.778666 23.48 0.624 24.28 0.624C25.144 0.624 25.96 0.789333 26.728 1.12C27.496 1.44 28.152 1.888 28.696 2.464L27.864 3.312C27.4373 2.82133 26.904 2.44267 26.264 2.176C25.624 1.89867 24.9627 1.76 24.28 1.76C23.64 1.76 23.0427 1.88267 22.488 2.128C21.9333 2.36267 21.4533 2.688 21.048 3.104C20.6533 3.50933 20.3387 4 20.104 4.576C19.8693 5.14133 19.752 5.74933 19.752 6.4C19.752 7.05067 19.8693 7.664 20.104 8.24C20.3387 8.80533 20.6533 9.296 21.048 9.712C21.4533 10.1173 21.9333 10.4427 22.488 10.688C23.0427 10.9227 23.64 11.04 24.28 11.04C24.8453 11.04 25.3733 10.944 25.864 10.752C26.3653 10.56 26.7973 10.2987 27.16 9.968C27.5333 9.62667 27.8373 9.22133 28.072 8.752C28.3067 8.28267 28.4453 7.776 28.488 7.232H24.472V6.144H29.736V6.64ZM45.4654 7.264C45.4654 8.75733 45.044 9.952 44.2014 10.848C43.3694 11.7333 42.2494 12.176 40.8414 12.176C39.4227 12.176 38.2974 11.7333 37.4654 10.848C36.6334 9.96267 36.2174 8.768 36.2174 7.264V0.799999H37.4494V7.264C37.4494 8.40533 37.7587 9.32267 38.3774 10.016C38.996 10.6987 39.8174 11.04 40.8414 11.04C41.8654 11.04 42.6867 10.6987 43.3054 10.016C43.924 9.32267 44.2334 8.40533 44.2334 7.264V0.799999H45.4654V7.264ZM52.507 12V0.799999H53.739V10.896H60.411V12H52.507ZM71.2127 11.04C71.9061 11.04 72.5674 10.9067 73.1967 10.64C73.8261 10.3627 74.3541 9.984 74.7807 9.504L75.5807 10.336C75.0261 10.912 74.3647 11.3653 73.5967 11.696C72.8287 12.016 72.0234 12.176 71.1807 12.176C70.3701 12.176 69.6074 12.0267 68.8927 11.728C68.1887 11.4293 67.5754 11.024 67.0527 10.512C66.5301 9.98933 66.1194 9.376 65.8207 8.672C65.5221 7.95733 65.3727 7.2 65.3727 6.4C65.3727 5.6 65.5221 4.848 65.8207 4.144C66.1194 3.42933 66.5301 2.816 67.0527 2.304C67.5754 1.78133 68.1887 1.37067 68.8927 1.072C69.6074 0.773333 70.3701 0.624 71.1807 0.624C72.0447 0.624 72.8607 0.789333 73.6287 1.12C74.4074 1.44 75.0687 1.888 75.6127 2.464L74.7967 3.328C74.3594 2.83733 73.8154 2.45333 73.1647 2.176C72.5247 1.89867 71.8634 1.76 71.1807 1.76C70.5407 1.76 69.9381 1.88267 69.3727 2.128C68.8181 2.36267 68.3381 2.688 67.9327 3.104C67.5274 3.50933 67.2074 4 66.9727 4.576C66.7381 5.14133 66.6207 5.74933 66.6207 6.4C66.6207 7.05067 66.7381 7.664 66.9727 8.24C67.2074 8.80533 67.5274 9.296 67.9327 9.712C68.3487 10.1173 68.8341 10.4427 69.3887 10.688C69.9541 10.9227 70.5621 11.04 71.2127 11.04ZM81.0796 12L85.7356 0.799999H87.2236L91.8156 12H90.4716L89.0636 8.48H83.7836L82.3596 12H81.0796ZM84.2156 7.424H88.6316L86.4396 1.952L84.2156 7.424ZM97.907 0.799999H99.139L105.875 9.888V0.799999H107.043V12H105.955L99.075 2.672V12H97.907V0.799999ZM122.538 12V0.799999H126.234C127.077 0.799999 127.861 0.943999 128.586 1.232C129.312 1.50933 129.936 1.89333 130.458 2.384C130.981 2.87467 131.386 3.46667 131.674 4.16C131.973 4.84267 132.122 5.58933 132.122 6.4C132.122 7.21067 131.973 7.96267 131.674 8.656C131.386 9.33867 130.981 9.92533 130.458 10.416C129.946 10.9067 129.328 11.296 128.602 11.584C127.877 11.8613 127.088 12 126.234 12H122.538ZM126.298 1.92H123.77V10.88H126.298C126.938 10.88 127.541 10.768 128.106 10.544C128.672 10.3093 129.157 9.99467 129.562 9.6C129.968 9.19467 130.288 8.72 130.522 8.176C130.757 7.62133 130.874 7.02933 130.874 6.4C130.874 5.77067 130.757 5.184 130.522 4.64C130.288 4.08533 129.968 3.61067 129.562 3.216C129.157 2.81067 128.672 2.496 128.106 2.272C127.541 2.03733 126.938 1.92 126.298 1.92ZM147.878 7.264C147.878 8.75733 147.457 9.952 146.614 10.848C145.782 11.7333 144.662 12.176 143.254 12.176C141.835 12.176 140.71 11.7333 139.878 10.848C139.046 9.96267 138.63 8.768 138.63 7.264V0.799999H139.862V7.264C139.862 8.40533 140.171 9.32267 140.79 10.016C141.409 10.6987 142.23 11.04 143.254 11.04C144.278 11.04 145.099 10.6987 145.718 10.016C146.337 9.32267 146.646 8.40533 146.646 7.264V0.799999H147.878V7.264ZM154.92 12V0.799999H156.152V10.896H162.824V12H154.92ZM179.017 6.64C179.017 7.41867 178.879 8.14933 178.601 8.832C178.324 9.504 177.94 10.0853 177.449 10.576C176.959 11.0667 176.383 11.456 175.721 11.744C175.06 12.032 174.345 12.176 173.577 12.176C172.777 12.176 172.02 12.0267 171.305 11.728C170.601 11.4187 169.988 11.008 169.465 10.496C168.953 9.97333 168.543 9.36 168.233 8.656C167.935 7.952 167.785 7.2 167.785 6.4C167.785 5.6 167.935 4.848 168.233 4.144C168.532 3.44 168.937 2.832 169.449 2.32C169.972 1.79733 170.585 1.38667 171.289 1.088C172.004 0.778666 172.761 0.624 173.561 0.624C174.425 0.624 175.241 0.789333 176.009 1.12C176.777 1.44 177.433 1.888 177.977 2.464L177.145 3.312C176.719 2.82133 176.185 2.44267 175.545 2.176C174.905 1.89867 174.244 1.76 173.561 1.76C172.921 1.76 172.324 1.88267 171.769 2.128C171.215 2.36267 170.735 2.688 170.329 3.104C169.935 3.50933 169.62 4 169.385 4.576C169.151 5.14133 169.033 5.74933 169.033 6.4C169.033 7.05067 169.151 7.664 169.385 8.24C169.62 8.80533 169.935 9.296 170.329 9.712C170.735 10.1173 171.215 10.4427 171.769 10.688C172.324 10.9227 172.921 11.04 173.561 11.04C174.127 11.04 174.655 10.944 175.145 10.752C175.647 10.56 176.079 10.2987 176.441 9.968C176.815 9.62667 177.119 9.22133 177.353 8.752C177.588 8.28267 177.727 7.776 177.769 7.232H173.753V6.144H179.017V6.64ZM185.723 12V0.799999H193.739V1.888H186.955V5.808H191.387V6.88H186.955V10.912H193.803V12H185.723ZM200.382 12V0.799999H205.182C206.27 0.799999 207.15 1.09867 207.822 1.696C208.494 2.28267 208.83 3.056 208.83 4.016C208.83 4.752 208.611 5.38667 208.174 5.92C207.747 6.45333 207.171 6.82133 206.446 7.024L208.958 12H207.598L205.198 7.184H201.614V12H200.382ZM205.102 1.904H201.614V6.144H205.102C205.849 6.144 206.451 5.952 206.91 5.568C207.369 5.17333 207.598 4.656 207.598 4.016C207.598 3.376 207.369 2.864 206.91 2.48C206.451 2.096 205.849 1.904 205.102 1.904Z" fill="#575757"/>
</svg>
